<svg width="154" height="37" viewBox="0 0 154 37" fill="none" xmlns="http://www.w3.org/2000/svg">
<path d="M18.6802 19.756C18.2941 15.0756 14.3731 11.3975 9.59303 11.3975C4.55707 11.3975 0.474609 15.4799 0.474609 20.5159C0.474609 25.5518 4.55707 29.6343 9.59303 29.6343H23.2707V19.756H18.6802Z" fill="#528BFF"/>
<circle cx="22.5113" cy="18.2359" r="11.398" fill="#FF8A7A"/>
<path d="M40.666 18.3888C40.666 16.8711 40.9568 15.5449 41.5383 14.4102C42.1341 13.2612 42.978 12.3747 44.0702 11.7506C45.1766 11.1265 46.4745 10.8145 47.9638 10.8145C49.1269 10.8145 50.1694 11.0414 51.0914 11.4953C52.0134 11.9492 52.7581 12.5875 53.3254 13.4102C53.8928 14.2328 54.2332 15.1832 54.3467 16.2612H51.1552C50.9708 15.4101 50.5808 14.7435 49.985 14.2612C49.4035 13.7648 48.673 13.5165 47.7936 13.5165C46.6021 13.5165 45.6589 13.9633 44.9638 14.857C44.2688 15.7506 43.9213 16.9278 43.9213 18.3888C43.9213 19.8356 44.2688 21.0129 44.9638 21.9207C45.6589 22.8143 46.6021 23.2611 47.7936 23.2611C48.673 23.2611 49.4035 23.02 49.985 22.5377C50.5808 22.0413 50.9708 21.3675 51.1552 20.5165H54.3467C54.2332 21.5945 53.8928 22.5448 53.3254 23.3675C52.7581 24.1902 52.0134 24.8285 51.0914 25.2823C50.1694 25.7362 49.1269 25.9632 47.9638 25.9632C46.4745 25.9632 45.1766 25.6511 44.0702 25.027C42.978 24.4029 42.1341 23.5235 41.5383 22.3888C40.9568 21.2398 40.666 19.9065 40.666 18.3888Z" fill="#101828"/>
<path d="M55.1158 10.9421H58.1158V25.8355H55.1158V10.9421Z" fill="#101828"/>
<path d="M64.6956 25.9632C63.5467 25.9632 62.5325 25.7362 61.6531 25.2823C60.7879 24.8143 60.1141 24.1547 59.6319 23.3037C59.1638 22.4526 58.9297 21.4739 58.9297 20.3675C58.9297 19.2612 59.1638 18.2824 59.6319 17.4314C60.1141 16.5803 60.7879 15.9279 61.6531 15.474C62.5325 15.0059 63.5467 14.7718 64.6956 14.7718C65.8445 14.7718 66.8516 15.0059 67.7169 15.474C68.5963 15.9279 69.27 16.5803 69.7381 17.4314C70.2204 18.2824 70.4615 19.2612 70.4615 20.3675C70.4615 21.4881 70.2204 22.4739 69.7381 23.3249C69.27 24.1618 68.5963 24.8143 67.7169 25.2823C66.8516 25.7362 65.8445 25.9632 64.6956 25.9632ZM64.6956 23.5164C65.5325 23.5164 66.1921 23.2256 66.6743 22.6441C67.1708 22.0625 67.419 21.3037 67.419 20.3675C67.419 19.4314 67.1708 18.6725 66.6743 18.091C66.1921 17.5094 65.5325 17.2186 64.6956 17.2186C63.8729 17.2186 63.2134 17.5094 62.7169 18.091C62.2347 18.6725 61.9935 19.4314 61.9935 20.3675C61.9935 21.3037 62.2347 22.0625 62.7169 22.6441C63.2134 23.2256 63.8729 23.5164 64.6956 23.5164Z" fill="#101828"/>
<path d="M81.5594 14.8995V25.8355H78.8999L78.6233 24.5164C78.2403 24.9703 77.7935 25.3249 77.2829 25.5802C76.7723 25.8355 76.1482 25.9632 75.4106 25.9632C74.134 25.9632 73.0915 25.5731 72.283 24.793C71.4745 23.9987 71.0702 22.6795 71.0702 20.8356V14.8995H74.0702V20.4739C74.0702 21.4668 74.2404 22.2186 74.5808 22.7292C74.9354 23.2256 75.4744 23.4739 76.1978 23.4739C76.9496 23.4739 77.5311 23.1973 77.9425 22.6441C78.3538 22.0767 78.5595 21.2895 78.5595 20.2824V14.8995H81.5594Z" fill="#101828"/>
<path d="M93.7301 10.9421V25.8355H91.1132L90.8153 24.3249C89.9784 25.4171 88.8437 25.9632 87.4111 25.9632C86.4466 25.9632 85.5813 25.7362 84.8154 25.2823C84.0494 24.8143 83.4466 24.1547 83.0069 23.3037C82.5814 22.4526 82.3686 21.4668 82.3686 20.3462C82.3686 19.2399 82.5814 18.2683 83.0069 17.4314C83.4466 16.5803 84.0494 15.9279 84.8154 15.474C85.5955 15.0059 86.4678 14.7718 87.4324 14.7718C88.8508 14.7718 89.9501 15.2683 90.7302 16.2612V10.9421H93.7301ZM88.1132 23.5164C88.9217 23.5164 89.5671 23.2327 90.0493 22.6654C90.5316 22.0838 90.7727 21.325 90.7727 20.3888C90.7727 19.4385 90.5316 18.6725 90.0493 18.091C89.5671 17.5094 88.9217 17.2186 88.1132 17.2186C87.3047 17.2186 86.6522 17.5094 86.1558 18.091C85.6735 18.6725 85.4324 19.4314 85.4324 20.3675C85.4324 21.3037 85.6735 22.0625 86.1558 22.6441C86.6522 23.2256 87.3047 23.5164 88.1132 23.5164Z" fill="#101828"/>
<path d="M94.1196 10.9421L97.4174 10.9208L100.162 21.8143L103.077 10.9421H105.949L108.779 21.8143L111.587 10.9421H114.821L110.694 25.8355H107.013L104.439 15.942L101.928 25.8355H98.2472L94.1196 10.9421Z" fill="#101828"/>
<path d="M124.832 23.3037V25.8355H123.3C121.924 25.8355 121.25 25.2398 121.279 24.0483C120.882 24.6724 120.392 25.1476 119.811 25.4738C119.229 25.8001 118.527 25.9632 117.704 25.9632C116.485 25.9632 115.499 25.6866 114.747 25.1334C114.009 24.566 113.641 23.7717 113.641 22.7505C113.641 21.5874 114.066 20.6938 114.917 20.0697C115.782 19.4314 117.031 19.1122 118.662 19.1122H120.832V18.5803C120.832 18.0839 120.648 17.6938 120.279 17.4101C119.91 17.1122 119.414 16.9633 118.789 16.9633C118.236 16.9633 117.782 17.0839 117.428 17.325C117.073 17.5661 116.86 17.8924 116.79 18.3037H113.896C113.995 17.1832 114.492 16.3179 115.385 15.708C116.279 15.0839 117.463 14.7718 118.938 14.7718C120.485 14.7718 121.676 15.1123 122.513 15.7931C123.364 16.474 123.789 17.4598 123.789 18.7505V22.6015C123.789 22.871 123.846 23.0554 123.96 23.1547C124.073 23.254 124.25 23.3037 124.492 23.3037H124.832ZM120.832 21.1122H118.641C118.016 21.1122 117.527 21.2398 117.172 21.4952C116.832 21.7363 116.662 22.0838 116.662 22.5377C116.662 22.9207 116.804 23.2256 117.087 23.4526C117.385 23.6795 117.782 23.793 118.279 23.793C119.059 23.793 119.676 23.5732 120.13 23.1334C120.584 22.6795 120.818 22.0767 120.832 21.325V21.1122Z" fill="#101828"/>
<path d="M125.844 17.4314H124.035V14.8995H125.844V11.8357H128.844V14.8995H131.333V17.4314H128.844V22.2186C128.844 22.6015 128.922 22.8781 129.078 23.0483C129.248 23.2185 129.524 23.3037 129.907 23.3037H131.461V25.8355H128.971C126.886 25.8355 125.844 24.793 125.844 22.7079V17.4314Z" fill="#101828"/>
<path d="M142.219 21.6867C142.02 23.02 141.453 24.0696 140.516 24.8355C139.594 25.5873 138.396 25.9632 136.921 25.9632C135.786 25.9632 134.793 25.7362 133.942 25.2823C133.091 24.8143 132.431 24.1547 131.963 23.3037C131.509 22.4526 131.283 21.4739 131.283 20.3675C131.283 19.247 131.509 18.2683 131.963 17.4314C132.431 16.5803 133.091 15.9279 133.942 15.474C134.807 15.0059 135.807 14.7718 136.942 14.7718C138.403 14.7718 139.594 15.1477 140.516 15.8995C141.438 16.6371 142.006 17.6654 142.219 18.9846H139.112C138.985 18.4456 138.729 18.02 138.346 17.708C137.963 17.3817 137.488 17.2186 136.921 17.2186C136.141 17.2186 135.516 17.5094 135.048 18.091C134.58 18.6725 134.346 19.4314 134.346 20.3675C134.346 21.3037 134.58 22.0625 135.048 22.6441C135.516 23.2256 136.141 23.5164 136.921 23.5164C137.502 23.5164 137.985 23.3533 138.368 23.0271C138.765 22.7008 139.02 22.254 139.133 21.6867H142.219Z" fill="#101828"/>
<path d="M149.225 14.7718C150.516 14.7718 151.573 15.169 152.395 15.9633C153.232 16.7576 153.651 18.0697 153.651 19.8994V25.8355H150.651V20.0271C150.651 19.1193 150.466 18.4314 150.097 17.9633C149.729 17.481 149.175 17.2399 148.438 17.2399C147.672 17.2399 147.069 17.5023 146.629 18.0271C146.204 18.5519 145.991 19.2824 145.991 20.2186V25.8355H142.991V10.9421H145.991V16.2399C146.8 15.2612 147.878 14.7718 149.225 14.7718Z" fill="#101828"/>
</svg>
