<svg width="145" height="37" viewBox="0 0 145 37" fill="none" xmlns="http://www.w3.org/2000/svg">
<path d="M17.2548 3.03906C14.4889 3.03906 12.2549 5.24592 12.2549 7.97821C12.2549 10.6895 14.4889 12.8963 17.2335 12.9174C16.5527 12.8963 16.0208 12.3499 16.0208 11.6773C16.0208 11.0047 16.574 10.4373 17.2761 10.4373C20.2548 10.4373 26.8717 10.4373 29.7866 10.4373C31.8504 10.4373 33.5312 8.77689 33.5312 6.73819C33.5312 4.69945 31.8504 3.03906 29.7866 3.03906L17.2548 3.03906Z" fill="#6FC965"/>
<path d="M11.1757 12.917C8.40979 12.917 6.17578 15.1239 6.17578 17.8561C6.17578 20.5674 8.40979 22.7742 11.1544 22.7953C10.4736 22.7742 9.94169 22.2278 9.94169 21.5552C9.94169 20.8827 10.4949 20.3152 11.197 20.3152C14.1757 20.3152 20.7926 20.3152 23.7075 20.3152C25.7713 20.3152 27.4521 18.6548 27.4521 16.6161C27.4521 14.5774 25.7713 12.917 23.7075 12.917L11.1757 12.917Z" fill="#7D9CD9"/>
<path d="M6.97426 22.7959C4.01077 22.7959 1.61719 25.1725 1.61719 28.115C1.61719 31.0348 4.01077 33.4114 6.95145 33.4341C6.22198 33.4114 5.65209 32.8229 5.65209 32.0986C5.65209 31.3743 6.2448 30.7632 6.99708 30.7632C10.1885 30.7632 17.2781 30.7632 20.4011 30.7632C22.6124 30.7632 24.4132 28.9751 24.4132 26.7796C24.4132 24.584 22.6124 22.7959 20.4011 22.7959L6.97426 22.7959Z" fill="#BED621"/>
<path d="M41.1152 25.7656V9.8084H51.3735V12.5439H44.1243V16.3509H50.7352V19.0864H44.1243V23.0301H51.5102V25.7656H41.1152Z" fill="#101828"/>
<path d="M52.689 30.3249V14.4588H55.5158V15.8266H55.9261C56.1844 15.3858 56.5872 14.9983 57.1343 14.664C57.6814 14.3144 58.464 14.1397 59.4823 14.1397C60.3941 14.1397 61.2376 14.3676 62.0126 14.8235C62.7877 15.2643 63.4108 15.9177 63.8819 16.784C64.353 17.6502 64.5886 18.6989 64.5886 19.9299V20.2946C64.5886 21.5256 64.353 22.5742 63.8819 23.4404C63.4108 24.3067 62.7877 24.9678 62.0126 25.4237C61.2376 25.8644 60.3941 26.0848 59.4823 26.0848C58.7984 26.0848 58.2209 26.0012 57.7498 25.834C57.2938 25.6821 56.9215 25.4845 56.6328 25.2413C56.3592 24.983 56.1388 24.7246 55.9717 24.4663H55.5613V30.3249H52.689ZM58.616 23.5772C59.5127 23.5772 60.2497 23.2961 60.8272 22.7338C61.4199 22.1563 61.7163 21.3204 61.7163 20.2262V19.9982C61.7163 18.904 61.4199 18.0758 60.8272 17.5135C60.2345 16.936 59.4975 16.6472 58.616 16.6472C57.7346 16.6472 56.9975 16.936 56.4048 17.5135C55.8121 18.0758 55.5158 18.904 55.5158 19.9982V20.2262C55.5158 21.3204 55.8121 22.1563 56.4048 22.7338C56.9975 23.2961 57.7346 23.5772 58.616 23.5772Z" fill="#101828"/>
<path d="M66.0862 25.7656V14.4588H68.9585V25.7656H66.0862ZM67.5223 13.1366C67.0056 13.1366 66.5649 12.9695 66.2002 12.6351C65.8506 12.3008 65.6758 11.86 65.6758 11.3129C65.6758 10.7658 65.8506 10.3251 66.2002 9.99077C66.5649 9.65643 67.0056 9.48926 67.5223 9.48926C68.0542 9.48926 68.495 9.65643 68.8445 9.99077C69.194 10.3251 69.3688 10.7658 69.3688 11.3129C69.3688 11.86 69.194 12.3008 68.8445 12.6351C68.495 12.9695 68.0542 13.1366 67.5223 13.1366Z" fill="#101828"/>
<path d="M76.3131 26.0848C75.2188 26.0848 74.2234 25.8568 73.3268 25.4009C72.4453 24.945 71.7462 24.2839 71.2295 23.4176C70.7128 22.5514 70.4545 21.5028 70.4545 20.2718V19.9526C70.4545 18.7217 70.7128 17.673 71.2295 16.8068C71.7462 15.9405 72.4453 15.2795 73.3268 14.8235C74.2234 14.3676 75.2188 14.1397 76.3131 14.1397C77.3921 14.1397 78.3191 14.3296 79.0942 14.7096C79.8692 15.0895 80.4923 15.6138 80.9634 16.2825C81.4498 16.936 81.7689 17.6806 81.9209 18.5165L79.1398 19.1092C79.079 18.6533 78.9422 18.2429 78.7294 17.8782C78.5167 17.5135 78.2127 17.2247 77.8176 17.012C77.4377 16.7992 76.9589 16.6928 76.3814 16.6928C75.8039 16.6928 75.2796 16.822 74.8085 17.0803C74.3526 17.3235 73.9879 17.6958 73.7143 18.1974C73.4559 18.6837 73.3268 19.284 73.3268 19.9982V20.2262C73.3268 20.9405 73.4559 21.5484 73.7143 22.0499C73.9879 22.5362 74.3526 22.9085 74.8085 23.1669C75.2796 23.41 75.8039 23.5316 76.3814 23.5316C77.2477 23.5316 77.9012 23.3113 78.3419 22.8705C78.7978 22.4146 79.0866 21.8219 79.2082 21.0925L81.9893 21.7535C81.7917 22.559 81.4498 23.2961 80.9634 23.9648C80.4923 24.6182 79.8692 25.135 79.0942 25.5149C78.3191 25.8948 77.3921 26.0848 76.3131 26.0848Z" fill="#101828"/>
<path d="M87.5273 25.948C86.6458 25.948 85.8708 25.7504 85.2021 25.3553C84.5486 24.945 84.0395 24.3827 83.6748 23.6684C83.31 22.9541 83.1276 22.1335 83.1276 21.2064V14.4588H86V20.9785C86 21.8295 86.2051 22.4678 86.6154 22.8933C87.041 23.3189 87.6413 23.5316 88.4163 23.5316C89.2978 23.5316 89.9817 23.2429 90.468 22.6654C90.9543 22.0727 91.1974 21.252 91.1974 20.2034V14.4588H94.0697V25.7656H91.243V24.2839H90.8327C90.6503 24.6638 90.3084 25.0362 89.8069 25.4009C89.3054 25.7656 88.5455 25.948 87.5273 25.948Z" fill="#101828"/>
<path d="M96.1262 25.7656V14.4588H98.9529V15.7354H99.3632C99.5304 15.2795 99.804 14.9451 100.184 14.7324C100.579 14.5196 101.035 14.4132 101.552 14.4132H102.919V16.9664H101.506C100.777 16.9664 100.176 17.1639 99.7052 17.5591C99.2341 17.939 98.9985 18.5317 98.9985 19.3372V25.7656H96.1262Z" fill="#101828"/>
<path d="M104.025 25.7656V14.4588H106.897V25.7656H104.025ZM105.461 13.1366C104.944 13.1366 104.503 12.9695 104.139 12.6351C103.789 12.3008 103.614 11.86 103.614 11.3129C103.614 10.7658 103.789 10.3251 104.139 9.99077C104.503 9.65643 104.944 9.48926 105.461 9.48926C105.993 9.48926 106.433 9.65643 106.783 9.99077C107.133 10.3251 107.307 10.7658 107.307 11.3129C107.307 11.86 107.133 12.3008 106.783 12.6351C106.433 12.9695 105.993 13.1366 105.461 13.1366Z" fill="#101828"/>
<path d="M114.32 26.0848C113.195 26.0848 112.185 25.8568 111.288 25.4009C110.391 24.945 109.685 24.2839 109.168 23.4176C108.651 22.5514 108.393 21.5104 108.393 20.2946V19.9299C108.393 18.7141 108.651 17.673 109.168 16.8068C109.685 15.9405 110.391 15.2795 111.288 14.8235C112.185 14.3676 113.195 14.1397 114.32 14.1397C115.445 14.1397 116.455 14.3676 117.352 14.8235C118.248 15.2795 118.955 15.9405 119.472 16.8068C119.989 17.673 120.247 18.7141 120.247 19.9299V20.2946C120.247 21.5104 119.989 22.5514 119.472 23.4176C118.955 24.2839 118.248 24.945 117.352 25.4009C116.455 25.8568 115.445 26.0848 114.32 26.0848ZM114.32 23.5316C115.201 23.5316 115.931 23.2505 116.508 22.6882C117.086 22.1107 117.375 21.29 117.375 20.2262V19.9982C117.375 18.9344 117.086 18.1214 116.508 17.5591C115.946 16.9816 115.217 16.6928 114.32 16.6928C113.438 16.6928 112.709 16.9816 112.132 17.5591C111.554 18.1214 111.265 18.9344 111.265 19.9982V20.2262C111.265 21.29 111.554 22.1107 112.132 22.6882C112.709 23.2505 113.438 23.5316 114.32 23.5316Z" fill="#101828"/>
<path d="M126.067 25.948C125.185 25.948 124.41 25.7504 123.742 25.3553C123.088 24.945 122.579 24.3827 122.214 23.6684C121.85 22.9541 121.667 22.1335 121.667 21.2064V14.4588H124.54V20.9785C124.54 21.8295 124.745 22.4678 125.155 22.8933C125.581 23.3189 126.181 23.5316 126.956 23.5316C127.837 23.5316 128.521 23.2429 129.008 22.6654C129.494 22.0727 129.737 21.252 129.737 20.2034V14.4588H132.609V25.7656H129.783V24.2839H129.372C129.19 24.6638 128.848 25.0362 128.346 25.4009C127.845 25.7656 127.085 25.948 126.067 25.948Z" fill="#101828"/>
<path d="M139.362 26.0848C137.888 26.0848 136.679 25.7656 135.737 25.1274C134.795 24.4891 134.225 23.5772 134.027 22.3918L136.672 21.7079C136.778 22.2399 136.953 22.6578 137.196 22.9617C137.454 23.2657 137.766 23.486 138.131 23.6228C138.511 23.7444 138.921 23.8052 139.362 23.8052C140.03 23.8052 140.524 23.6912 140.844 23.4632C141.163 23.2201 141.322 22.9237 141.322 22.5742C141.322 22.2247 141.17 21.9587 140.866 21.7763C140.562 21.5788 140.076 21.4192 139.407 21.2976L138.769 21.1836C137.979 21.0317 137.257 20.8265 136.603 20.5681C135.95 20.2946 135.426 19.9223 135.031 19.4511C134.635 18.98 134.438 18.3721 134.438 17.6274C134.438 16.5028 134.848 15.6442 135.669 15.0515C136.489 14.4436 137.568 14.1397 138.906 14.1397C140.167 14.1397 141.216 14.4208 142.052 14.9831C142.888 15.5454 143.435 16.2825 143.693 17.1943L141.026 18.015C140.904 17.4375 140.654 17.0272 140.274 16.784C139.909 16.5408 139.453 16.4193 138.906 16.4193C138.359 16.4193 137.941 16.518 137.652 16.7156C137.363 16.898 137.219 17.1563 137.219 17.4907C137.219 17.8554 137.371 18.129 137.675 18.3113C137.979 18.4785 138.389 18.6077 138.906 18.6989L139.544 18.8128C140.395 18.9648 141.163 19.17 141.847 19.4283C142.546 19.6715 143.093 20.0286 143.488 20.4998C143.898 20.9557 144.103 21.5788 144.103 22.369C144.103 23.5544 143.67 24.4739 142.804 25.1274C141.953 25.7656 140.806 26.0848 139.362 26.0848Z" fill="#101828"/>
</svg>
