<svg width="140" height="29" viewBox="0 0 140 29" fill="none" xmlns="http://www.w3.org/2000/svg">
<g clip-path="url(#clip0_10831_3330)">
<path d="M120.084 22.6159V10.1268H123.003V11.8437C123.976 10.7854 125.4 9.8916 127.322 9.8916C129.434 9.8916 130.265 10.7148 130.763 11.9378C131.76 10.8559 133.255 9.8916 135.177 9.8916C137.74 9.8916 138.856 11.4204 138.856 13.6548V22.6159H135.937V14.3839C135.937 12.9962 135.533 12.3612 134.157 12.3612C132.97 12.3612 132.021 13.0197 130.929 13.984V22.6159H128.01V14.3839C128.01 12.9962 127.607 12.3612 126.23 12.3612C125.068 12.3612 124.095 13.0197 123.003 13.984V22.6159H120.084Z" fill="#001524"/>
<path d="M110.13 22.804C108.089 22.804 106.57 21.6751 106.57 19.6053C106.57 16.9005 108.896 15.0895 114.782 14.4309V14.0546C114.782 12.808 114.117 12.2671 112.717 12.2671C110.961 12.2671 109.537 13.1138 108.469 13.9605L107.045 12.1495C108.398 10.9265 110.51 9.8916 113.12 9.8916C116.49 9.8916 117.653 11.4909 117.653 14.4074V19.5583C117.653 21.0636 117.748 21.9808 118.009 22.6159H115.066C114.9 22.0984 114.782 21.7221 114.782 21.0165C113.5 22.3101 112.005 22.804 110.13 22.804ZM111.198 20.5696C112.693 20.5696 113.856 20.0052 114.782 19.1349V16.3831C111.293 16.8535 109.442 17.7002 109.442 19.0644C109.442 20.0522 110.13 20.5696 111.198 20.5696Z" fill="#001524"/>
<path d="M98.7031 22.6159V10.1268H101.622V12.173H101.67C102.453 10.9265 103.805 9.8916 106.202 9.8916H106.392L106.297 12.5493C106.155 12.5258 105.68 12.5023 105.514 12.5023C103.639 12.5023 102.453 13.3725 101.622 14.7132V22.6159H98.7031Z" fill="#001524"/>
<path d="M90.2316 27.461C85.8887 27.461 84.1562 26.2144 84.1562 24.4034C84.1562 23.1568 84.9394 22.2631 86.2209 21.7692C85.5802 21.4399 85.2479 20.9224 85.2479 20.2404C85.2479 19.2996 86.0073 18.5234 86.9566 17.9589C85.6751 17.1592 84.9631 15.8892 84.9631 14.3604C84.9631 11.7967 86.9566 9.8916 90.2553 9.8916C91.9877 9.8916 93.2692 10.4561 94.1236 11.2087C94.9304 10.5737 96.212 10.0798 97.2562 9.98568V12.3376C96.6866 12.3376 95.8797 12.4082 95.0491 12.6669C95.3339 13.1138 95.5 13.7018 95.5 14.3604C95.5 16.9711 93.5303 18.8056 90.2553 18.8056C89.5434 18.8056 89.1162 18.7116 88.4992 18.5469C88.1194 18.7586 87.8584 19.0173 87.8584 19.3466C87.8584 19.8405 88.1906 20.0052 89.306 20.0992L91.5368 20.2404C95.2627 20.4756 96.7341 21.4634 96.7341 23.6508C96.7341 26.2144 94.1236 27.461 90.2316 27.461ZM90.3028 16.8064C91.8928 16.8064 92.8421 15.9832 92.8421 14.4544C92.8421 12.9021 91.9402 12.0554 90.279 12.0554C88.6653 12.0554 87.716 12.9256 87.716 14.4544C87.716 15.9832 88.689 16.8064 90.3028 16.8064ZM90.6825 25.3677C92.8183 25.3677 94.1473 24.8032 94.1473 23.9095C94.1473 23.0157 93.5065 22.6864 90.9435 22.5218L88.7602 22.3807C88.4992 22.3807 88.2618 22.3572 88.0008 22.3101C87.1702 22.6864 86.8379 23.2744 86.8379 23.9095C86.8379 25.0149 88.1194 25.3677 90.6825 25.3677Z" fill="#001524"/>
<path d="M81.5148 22.7813C78.311 22.7813 77.6228 21.6053 77.6228 19.3474V12.4325H75.4395V10.1276H77.6228V5.77637H80.5418V10.1276H83.793V12.4325H80.5418V18.6183C80.5418 19.9589 80.9452 20.4999 82.3928 20.4999C82.82 20.4999 83.3658 20.4293 83.6506 20.3353V22.6167C83.3421 22.6873 82.2505 22.7813 81.5148 22.7813Z" fill="#001524"/>
<path d="M69.5544 22.616V12.4319H67.3711V10.1269H69.5544V8.85678C69.5544 6.7635 70.4325 5.14062 73.6363 5.14062C74.1821 5.14062 75.1551 5.23471 75.3687 5.25823V7.49262C75.1788 7.44559 74.7042 7.39854 74.372 7.39854C73.3278 7.39854 72.4734 7.68079 72.4734 9.02143V10.1269H75.2263V12.4319H72.4734V22.616H69.5544Z" fill="#001524"/>
<path d="M58.509 22.804C56.468 22.804 54.9492 21.6751 54.9492 19.6053C54.9492 16.9005 57.2749 15.0895 63.1604 14.4309V14.0546C63.1604 12.808 62.4959 12.2671 61.0957 12.2671C59.3396 12.2671 57.9157 13.1138 56.8478 13.9605L55.4239 12.1495C56.7766 10.9265 58.8887 9.8916 61.4992 9.8916C64.8691 9.8916 66.0319 11.4909 66.0319 14.4074V19.5583C66.0319 21.0636 66.1269 21.9808 66.3879 22.6159H63.4452C63.279 22.0984 63.1604 21.7221 63.1604 21.0165C61.8789 22.3101 60.3838 22.804 58.509 22.804ZM59.5769 20.5696C61.072 20.5696 62.2349 20.0052 63.1604 19.1349V16.3831C59.6718 16.8535 57.8208 17.7002 57.8208 19.0644C57.8208 20.0522 58.509 20.5696 59.5769 20.5696Z" fill="#001524"/>
<path d="M47.082 22.6159V10.1268H50.001V12.173H50.0485C50.8316 10.9265 52.1844 9.8916 54.5813 9.8916H54.7711L54.6762 12.5493C54.5338 12.5258 54.0592 12.5023 53.893 12.5023C52.0182 12.5023 50.8316 13.3725 50.001 14.7132V22.6159H47.082Z" fill="#001524"/>
<path d="M37.996 22.9452C33.487 22.9452 30.2832 19.8641 30.2832 13.8665C30.2832 8.03352 33.5819 4.88184 37.996 4.88184C42.0779 4.88184 44.0239 7.11624 44.807 10.2914L41.9829 11.0911C41.3184 8.78616 40.298 7.61016 37.9723 7.61016C35.0058 7.61016 33.2734 9.8916 33.2734 13.8429C33.2734 17.9825 35.0533 20.2639 38.0197 20.2639C40.298 20.2639 41.5795 19.1349 42.244 16.5242L45.0681 17.1593C44.2137 20.6167 42.0541 22.9452 37.996 22.9452Z" fill="#001524"/>
<mask id="mask0_10831_3330" style="mask-type:luminance" maskUnits="userSpaceOnUse" x="0" y="1" width="25" height="24">
<path d="M24.6243 1.33594H0.892578V24.8559H24.6243V1.33594Z" fill="white"/>
</mask>
<g mask="url(#mask0_10831_3330)">
<path d="M12.7554 1.33594V13.0959L7.57997 7.96515C7.09895 7.4846 6.82756 6.836 6.82422 6.15901V1.33594H12.7554Z" fill="#00CECB"/>
<path d="M24.6251 13.0961H12.7559L17.9382 7.96529C18.1796 7.72352 18.4679 7.53255 18.7855 7.40381C19.1032 7.27507 19.4438 7.21122 19.787 7.21608H24.6521L24.6251 13.0961Z" fill="#00CECB"/>
<path d="M12.7559 24.8557V13.0957L17.9314 18.2331C18.1756 18.4724 18.3684 18.758 18.4983 19.073C18.6282 19.388 18.6924 19.7258 18.6871 20.0661V24.8892L12.7559 24.8557Z" fill="#00CECB"/>
<path d="M0.892578 13.0957H12.755L7.57956 18.2265C7.09648 18.7058 6.44115 18.9753 5.75768 18.9757H0.892578V13.0957Z" fill="#00CECB"/>
</g>
</g>
<defs>
<clipPath id="clip0_10831_3330">
<rect width="139" height="28" fill="white" transform="translate(0.714844 0.237305)"/>
</clipPath>
</defs>
</svg>
