<svg width="139" height="37" viewBox="0 0 139 37" fill="none" xmlns="http://www.w3.org/2000/svg">
<g clip-path="url(#clip0_10831_3307)">
<path d="M20.72 3.13087L17.5127 2.27148L14.8099 12.3585L12.3698 3.25187L9.1625 4.11126L11.7989 13.9503L5.23223 7.38364L2.88434 9.73153L10.0872 16.9344L1.1172 14.5309L0.257812 17.7381L10.0586 20.3643C9.94641 19.8803 9.88704 19.376 9.88704 18.8578C9.88704 15.1902 12.8602 12.217 16.5279 12.217C20.1955 12.217 23.1687 15.1902 23.1687 18.8578C23.1687 19.3727 23.1101 19.8738 22.9993 20.355L31.9064 22.7416L32.7657 19.5344L22.926 16.8978L31.8965 14.4941L31.0371 11.2869L21.1978 13.9233L27.7644 7.35668L25.4165 5.00879L18.3136 12.1117L20.72 3.13087Z" fill="#FF4405"/>
<path d="M22.9899 20.3923C22.7149 21.5548 22.1344 22.5992 21.3379 23.436L27.7907 29.8888L30.1386 27.541L22.9899 20.3923Z" fill="#FF4405"/>
<path d="M21.2727 23.5034C20.4665 24.3268 19.4478 24.9413 18.3053 25.2579L20.6534 34.0209L23.8606 33.1615L21.2727 23.5034Z" fill="#FF4405"/>
<path d="M18.1855 25.29C17.6555 25.4262 17.0999 25.4986 16.5273 25.4986C15.9139 25.4986 15.32 25.4155 14.7561 25.2598L12.4059 34.0308L15.6131 34.8902L18.1855 25.29Z" fill="#FF4405"/>
<path d="M14.6427 25.2275C13.5176 24.8951 12.517 24.2728 11.7273 23.4471L5.25858 29.9158L7.60647 32.2637L14.6427 25.2275Z" fill="#FF4405"/>
<path d="M11.674 23.3899C10.8978 22.5589 10.3324 21.5285 10.0633 20.3839L1.12713 22.7784L1.98652 25.9856L11.674 23.3899Z" fill="#FF4405"/>
</g>
<path d="M52.0665 9.80762V21.3652L44.6578 9.80762H41.6943V25.7649H44.6578V14.2984L52.0665 25.7649H55.03V9.80762H52.0665Z" fill="#101828"/>
<path d="M56.3654 12.7939H59.42V9.80762H56.3654V12.7939ZM56.411 25.7649V14.3668H59.3745V25.7649H56.411Z" fill="#101828"/>
<path d="M72.1251 20.0658C72.1251 16.1221 69.3212 14.2528 66.3577 14.2301C63.3714 14.2073 60.6131 16.1221 60.6131 20.0658C60.6131 24.0096 63.3714 25.9244 66.3577 25.9016C69.0704 25.8788 70.9397 24.6251 71.806 22.5506L69.5036 21.5932C68.7969 23.0065 67.6799 23.508 66.3577 23.5308C65.2179 23.5536 63.9185 23.0065 63.645 20.9777H72.0567C72.1023 20.6813 72.1251 20.385 72.1251 20.0658ZM66.3577 16.578C67.4975 16.6008 68.6601 17.2163 69.0248 18.8577H63.6906C64.0781 17.1935 65.2407 16.5552 66.3577 16.578Z" fill="#101828"/>
<path d="M78.9739 16.4869V14.2301H77.1046V11.1754L74.1411 12.0872V14.2301H72.2719V16.4869H74.1411V22.391C74.1411 24.6251 74.3235 25.7649 77.7885 25.7649H78.5864V23.1661H77.7885C77.2414 23.1661 77.1046 23.0749 77.1046 22.391V16.4869H78.9739Z" fill="#101828"/>
<path d="M83.3775 23.2801L89.6692 16.8516V14.3668H80.2316V16.8516H86.3409L80.0492 23.2801V25.7649H89.7375V23.2801H83.3775Z" fill="#101828"/>
<path d="M90.8001 22.5506L93.7863 22.0947C93.9915 23.2345 95.3365 23.6676 96.1571 23.6676C97.0006 23.6676 98.4595 23.4852 98.4595 22.1175C98.4595 19.4503 91.142 22.7786 91.142 17.6723C91.142 14.3896 94.9489 14.2073 96.1571 14.2073C97.2969 14.2073 100.602 14.3896 101.286 17.034L98.4595 17.6267C98.2088 16.4185 96.9322 16.1905 96.2483 16.1905C95.5644 16.1905 94.1055 16.3501 94.1055 17.6723C94.1055 20.3166 101.423 16.9428 101.423 22.1175C101.423 25.6053 97.4109 25.9016 96.1571 25.9016C95.0173 25.9016 91.3928 25.6053 90.8001 22.5506Z" fill="#101828"/>
<path d="M105.273 20.0658C105.273 22.847 106.755 23.6904 108.305 23.6676C109.695 23.6448 110.653 23.0749 111.223 21.4792L113.662 22.6646C112.773 24.9898 110.607 25.8788 108.305 25.9016C105.318 25.9244 102.309 24.0096 102.309 20.0658C102.309 16.1221 105.318 14.2073 108.305 14.2301C110.607 14.2528 112.773 15.1419 113.662 17.4671L111.223 18.6525C110.653 17.0568 109.695 16.4869 108.305 16.4641C106.755 16.4413 105.273 17.2847 105.273 20.0658Z" fill="#101828"/>
<path d="M121.617 14.1845C120.09 14.1845 118.7 14.9823 117.811 16.692V9.80762H114.847V25.7649H117.811V21.73C117.811 16.5097 119.976 16.0765 120.774 16.0765C122.051 16.0765 122.233 17.3987 122.233 19.3364V25.7649H125.196V19.3364C125.196 16.92 124.809 14.1845 121.617 14.1845Z" fill="#101828"/>
<path d="M137.708 20.0658C137.708 16.1221 134.904 14.2528 131.941 14.2301C128.955 14.2073 126.196 16.1221 126.196 20.0658C126.196 24.0096 128.955 25.9244 131.941 25.9016C134.654 25.8788 136.523 24.6251 137.389 22.5506L135.087 21.5932C134.38 23.0065 133.263 23.508 131.941 23.5308C130.801 23.5536 129.502 23.0065 129.228 20.9777H137.64C137.685 20.6813 137.708 20.385 137.708 20.0658ZM131.941 16.578C133.081 16.6008 134.243 17.2163 134.608 18.8577H129.274C129.661 17.1935 130.824 16.5552 131.941 16.578Z" fill="#101828"/>
<defs>
<clipPath id="clip0_10831_3307">
<rect width="33.4342" height="33.4342" fill="white" transform="translate(0 1.51953)"/>
</clipPath>
</defs>
</svg>
