<svg width="136" height="37" viewBox="0 0 136 37" fill="none" xmlns="http://www.w3.org/2000/svg">
<circle cx="15.6583" cy="18.2364" r="12.9178" stroke="#155EEF" stroke-width="4.55921"/>
<path d="M50.7515 15.5108C50.7515 16.3051 50.56 17.0498 50.1771 17.7448C49.8083 18.4398 49.2196 19.0001 48.4111 19.4256C47.6168 19.8511 46.6097 20.0639 45.3899 20.0639H42.9006V25.766H39.9219V10.9151H45.3899C46.5388 10.9151 47.5175 11.1137 48.326 11.5108C49.1345 11.908 49.7373 12.4541 50.1345 13.1491C50.5458 13.8441 50.7515 14.6314 50.7515 15.5108ZM45.2622 17.6597C46.0849 17.6597 46.6948 17.4753 47.092 17.1065C47.4892 16.7235 47.6877 16.1916 47.6877 15.5108C47.6877 14.064 46.8792 13.3406 45.2622 13.3406H42.9006V17.6597H45.2622Z" fill="#101828"/>
<path d="M57.2493 25.9574C56.1145 25.9574 55.0933 25.7092 54.1855 25.2128C53.2777 24.7021 52.5614 23.9858 52.0366 23.0639C51.5259 22.1419 51.2706 21.0781 51.2706 19.8724C51.2706 18.6668 51.533 17.6029 52.0579 16.681C52.5969 15.759 53.3273 15.0498 54.2493 14.5533C55.1713 14.0427 56.1996 13.7874 57.3344 13.7874C58.4691 13.7874 59.4975 14.0427 60.4194 14.5533C61.3414 15.0498 62.0648 15.759 62.5896 16.681C63.1286 17.6029 63.3981 18.6668 63.3981 19.8724C63.3981 21.0781 63.1215 22.1419 62.5684 23.0639C62.0294 23.9858 61.2918 24.7021 60.3556 25.2128C59.4336 25.7092 58.3982 25.9574 57.2493 25.9574ZM57.2493 23.3617C57.7883 23.3617 58.2918 23.2341 58.7599 22.9788C59.2422 22.7093 59.6251 22.3121 59.9088 21.7873C60.1925 21.2625 60.3343 20.6242 60.3343 19.8724C60.3343 18.7519 60.0365 17.8937 59.4407 17.298C58.8592 16.6881 58.1429 16.3831 57.2918 16.3831C56.4408 16.3831 55.7245 16.6881 55.1429 17.298C54.5755 17.8937 54.2919 18.7519 54.2919 19.8724C54.2919 20.993 54.5685 21.8582 55.1216 22.4681C55.689 23.0639 56.3982 23.3617 57.2493 23.3617Z" fill="#101828"/>
<path d="M67.7107 10.0215V25.766H64.7321V10.0215H67.7107Z" fill="#101828"/>
<path d="M81.0791 13.9789L73.7813 31.3404H70.6111L73.1643 25.4681L68.4409 13.9789H71.7813L74.8238 22.2128L77.9089 13.9789H81.0791Z" fill="#101828"/>
<path d="M96.4718 13.8087C97.9186 13.8087 99.0817 14.2555 99.9611 15.1491C100.855 16.0285 101.302 17.2625 101.302 18.8512V25.766H98.3229V19.2554C98.3229 18.3334 98.0888 17.6313 97.6208 17.149C97.1527 16.6526 96.5144 16.4044 95.7059 16.4044C94.8974 16.4044 94.252 16.6526 93.7697 17.149C93.3017 17.6313 93.0676 18.3334 93.0676 19.2554V25.766H90.0889V19.2554C90.0889 18.3334 89.8549 17.6313 89.3868 17.149C88.9187 16.6526 88.2804 16.4044 87.4719 16.4044C86.6493 16.4044 85.9968 16.6526 85.5145 17.149C85.0464 17.6313 84.8124 18.3334 84.8124 19.2554V25.766H81.8337V13.9789H84.8124V15.4044C85.1954 14.9079 85.6847 14.5179 86.2805 14.2342C86.8904 13.9505 87.557 13.8087 88.2804 13.8087C89.2024 13.8087 90.0251 14.0072 90.7485 14.4044C91.4719 14.7874 92.0322 15.3406 92.4293 16.064C92.8123 15.3831 93.3655 14.837 94.0889 14.4257C94.8265 14.0143 95.6208 13.8087 96.4718 13.8087Z" fill="#101828"/>
<path d="M102.511 19.8299C102.511 18.6384 102.745 17.5817 103.213 16.6597C103.696 15.7377 104.341 15.0285 105.149 14.5321C105.972 14.0356 106.887 13.7874 107.894 13.7874C108.773 13.7874 109.539 13.9647 110.192 14.3193C110.859 14.6739 111.39 15.1207 111.788 15.6597V13.9789H114.788V25.766H111.788V24.0426C111.405 24.5958 110.873 25.0567 110.192 25.4255C109.525 25.7801 108.752 25.9574 107.873 25.9574C106.88 25.9574 105.972 25.7021 105.149 25.1915C104.341 24.6809 103.696 23.9646 103.213 23.0426C102.745 22.1064 102.511 21.0355 102.511 19.8299ZM111.788 19.8724C111.788 19.149 111.646 18.532 111.362 18.0214C111.078 17.4966 110.695 17.0994 110.213 16.8299C109.731 16.5462 109.213 16.4044 108.66 16.4044C108.107 16.4044 107.596 16.5391 107.128 16.8086C106.66 17.0781 106.277 17.4753 105.979 18.0001C105.695 18.5107 105.554 19.1207 105.554 19.8299C105.554 20.5391 105.695 21.1632 105.979 21.7022C106.277 22.227 106.66 22.6312 107.128 22.9149C107.61 23.1986 108.121 23.3405 108.66 23.3405C109.213 23.3405 109.731 23.2057 110.213 22.9362C110.695 22.6525 111.078 22.2554 111.362 21.7447C111.646 21.2199 111.788 20.5958 111.788 19.8724Z" fill="#101828"/>
<path d="M120.314 16.4257V22.1277C120.314 22.5249 120.406 22.8156 120.59 23C120.789 23.1702 121.115 23.2554 121.569 23.2554H122.952V25.766H121.08C118.569 25.766 117.314 24.5461 117.314 22.1064V16.4257H115.91V13.9789H117.314V11.064H120.314V13.9789H122.952V16.4257H120.314Z" fill="#101828"/>
<path d="M130.882 13.8087C131.775 13.8087 132.57 14.0072 133.265 14.4044C133.96 14.7874 134.499 15.3618 134.882 16.1278C135.279 16.8796 135.477 17.7873 135.477 18.8512V25.766H132.499V19.2554C132.499 18.3192 132.265 17.6029 131.796 17.1065C131.328 16.5959 130.69 16.3406 129.882 16.3406C129.059 16.3406 128.406 16.5959 127.924 17.1065C127.456 17.6029 127.222 18.3192 127.222 19.2554V25.766H124.243V10.0215H127.222V15.4469C127.605 14.9363 128.116 14.5392 128.754 14.2555C129.392 13.9576 130.101 13.8087 130.882 13.8087Z" fill="#101828"/>
</svg>
